<svg height="512pt" viewBox="0 0 512 512" width="512pt" xmlns="http://www.w3.org/2000/svg"><path d="m511.925781 256.035156c0 37.332032-7.992187 72.769532-22.335937 104.746094-.011719.03125-.03125.066406-.042969.097656-10.402344 23.117188-24.132813 44.421875-40.578125 63.277344-4.386719 5.035156-8.972656 9.894531-13.738281 14.574219-.019531.023437-.03125.03125-.050781.054687-.53125.53125-1.074219 1.054688-1.621094 1.578125-13.894532 13.390625-29.304688 25.230469-45.945313 35.238281 0 0 0 0-.011719 0-1.117187.667969-2.246093 1.328126-3.375 1.984376-3.675781 2.140624-7.425781 4.191406-11.21875 6.144531-3.71875 1.910156-7.480468 3.738281-11.292968 5.472656h-.011719c-30.632813 13.917969-64.503906 21.972656-100.160156 22.734375-1.851563.042969-3.710938.0625-5.578125.0625-8.890625 0-17.6875-.449219-26.351563-1.347656-4.480469-.460938-8.941406-1.023438-13.351562-1.714844-3.289063-.511719-6.558594-1.085938-9.808594-1.722656-9.9375-1.941406-19.671875-4.472656-29.160156-7.542969-3.257813-1.035156-6.496094-2.152344-9.695313-3.332031-8.554687-3.15625-16.902344-6.75-25.011718-10.761719-14.699219-7.269531-28.605469-15.921875-41.539063-25.753906-10.027344-7.648438-19.460937-15.992188-28.25-24.988281-15.511719-15.902344-28.992187-33.820313-39.972656-53.316407 0-.007812-.007813-.007812-.007813-.019531-10.019531-17.78125-17.980468-36.867188-23.539062-56.96875v-.011719c-6.050782-21.804687-9.277344-44.757812-9.277344-68.484375 0-141.363281 114.597656-255.9609372 255.964844-255.9609372 33.191406 0 64.910156 6.3203122 94.003906 17.8242192.011719 0 .011719.007812.023438.007812 3.332031 1.308594 6.632812 2.695312 9.890624 4.148438 3.273438 1.453124 6.5 2.96875 9.6875 4.554687 17.277344 8.566406 33.460938 19.035156 48.257813 31.132813 6.183594 5.058593 12.128906 10.394531 17.8125 16.007812 43.273437 42.644531 71.429687 100.585938 75.710937 165.046875.386719 5.695313.574219 11.441406.574219 17.238281zm0 0" fill="#8ce3eb"/><path d="m448.96875 424.15625c-4.386719 5.035156-8.972656 9.894531-13.738281 14.574219-.019531.023437-.03125.03125-.050781.054687-.53125.53125-1.074219 1.054688-1.621094 1.578125-13.894532 13.390625-29.304688 25.230469-45.945313 35.238281 0 0 0 0-.011719 0-1.117187.667969-2.246093 1.328126-3.375 1.984376-3.675781 2.140624-7.425781 4.191406-11.21875 6.144531-3.71875 1.910156-7.480468 3.738281-11.292968 5.472656h-.011719c-30.632813 13.917969-64.503906 21.972656-100.160156 22.734375-1.851563.042969-3.710938.0625-5.578125.0625-8.890625 0-17.6875-.449219-26.351563-1.347656-4.480469-.460938-8.941406-1.023438-13.351562-1.714844v-84.78125zm0 0" fill="#9db750"/><path d="m228.707031 353.601562-6.273437 94.671876c-5.808594 5.199218-11.886719 10.082031-18.199219 14.628906-206.707031-41.039063-130.121094-357.753906-129.445313-360.523438-2.296874 34.902344 26.617188 70.550782 59.988282 106.496094l.003906.011719c44.574219 48.015625 97.109375 96.597656 93.925781 144.714843zm0 0" fill="#9db750"/><path d="m332.691406 338.535156 26.609375 109.6875c247.304688-60 101.292969-380.753906 101.292969-380.753906 8.296875 34.191406-17.628906 73.703125-48.429688 114.152344l.003907.015625c-41.121094 54.023437-90.910157 109.769531-79.476563 156.898437zm0 0" fill="#9db750"/><path d="m491.753906 338.027344c0 7.785156-.742187 15.402344-2.164062 22.753906-.011719.03125-.03125.066406-.042969.097656-13.183594 29.292969-31.695313 55.664063-54.316406 77.851563-16.777344 10.019531-36.28125 15.765625-57.09375 15.765625-25.273438 0-48.613281-8.460938-67.480469-22.765625-27.988281-21.207031-46.136719-55.277344-46.136719-93.703125 0-8.148438.816407-19.660156 2.371094-33.566406 8.808594-78.753907 41.332031-233.980469 83.078125-286.5625 8.683594-10.910157 17.742188-17.398438 27.070312-17.867188.367188-.0195312.730469-.03125 1.097657-.03125.367187 0 .730469.0117188 1.097656.03125 20.570313 1.035156 39.824219 31.320312 56.40625 73.71875 27.183594 69.527344 47.136719 171.628906 53.742187 230.710938 1.554688 13.90625 2.371094 25.417968 2.371094 33.566406zm0 0" fill="#ffc331"/><path d="m489.382812 304.460938c-1.128906-10.0625-2.632812-21.367188-4.503906-33.546876-.304687-1.964843-.605468-3.949218-.929687-5.957031-1.652344-10.363281-3.542969-21.28125-5.664063-32.550781-.144531-.804688-.300781-1.609375-.457031-2.425781-.984375-5.160157-2.007813-10.382813-3.082031-15.671875-.054688-.292969-.117188-.59375-.179688-.886719-2.683594-13.183594-5.664062-26.671875-8.878906-40.128906-.0625-.261719-.125-.511719-.1875-.773438-1.246094-5.183593-2.53125-10.363281-3.847656-15.523437-.230469-.910156-.46875-1.828125-.710938-2.738282-2.484375-9.621093-5.097656-19.152343-7.824218-28.46875-.78125-2.675781-1.566407-5.328124-2.371094-7.972656-19.433594-63.96875-44.328125-116.40625-71.511719-117.785156-.367187-.0195312-.730469-.03125-1.097656-.03125-.367188 0-.730469.0117188-1.097657.03125-50.355468 2.550781-92.886718 180.355469-107.285156 282.019531 10.980469 19.496094 24.457032 37.414063 39.972656 53.3125 26.367188 27.007813 58.683594 48.214844 94.800782 61.503907 19.652344 7.230468 8.503906-28.863282 30.089844-26.671876 15.761718-19.984374 57.136718-4.449218 57.136718-32.167968 0-8.148438-.816406-19.660156-2.371094-33.566406zm-119.09375-53.304688c-.070312 11.460938-9.410156 20.761719-20.882812 20.761719h-9.9375c-4.03125 0-7.792969-2.113281-9.808594-5.601563-4.273437-7.386718-6.644531-15.722656-6.644531-24.738281v-.117187c.011719-6.265626 5.117187-11.335938 11.386719-11.335938h15.003906c5.578125 0 10.824219 2.175781 14.78125 6.125 3.898438 3.90625 6.070312 9.097656 6.101562 14.625zm0-57.460938c-.070312 11.460938-9.410156 20.761719-20.882812 20.761719h-7.730469c-9.875 0-17.625-8.402343-16.90625-18.242187.1875-2.664063.398438-5.339844.628907-8.023438.730468-8.777344 8.085937-15.527344 16.894531-15.527344h7.113281c5.578125 0 10.824219 2.175782 14.78125 6.125 3.898438 3.90625 6.070312 9.097657 6.101562 14.625zm0-57.460937c-.070312 11.460937-9.410156 20.761719-20.882812 20.761719h-3.929688c-8.964843 0-15.867187-7.941406-14.59375-16.820313.605469-4.210937 1.242188-8.378906 1.902344-12.519531 1.148438-7.164062 7.3125-12.453125 14.574219-12.453125h2.046875c5.578125 0 10.824219 2.175781 14.78125 6.125 3.898438 3.90625 6.070312 9.097656 6.101562 14.625zm0-57.460937c-.070312 11.460937-9.410156 20.761718-20.882812 20.761718-5.191406 0-9.171875-4.242187-9.171875-9.152344 0-.773437.09375-1.558593.300781-2.351562 2.027344-7.773438 4.484375-16.078125 6.300782-22.035156 1.734374-5.671875 8.367187-8.304688 13.433593-5.210938 1.410157.855469 2.71875 1.890625 3.917969 3.082032 3.898438 3.90625 6.070312 9.097656 6.101562 14.625zm0-57.597657v.136719c-.039062 7.03125-3.570312 13.226562-8.941406 16.976562-3.21875 2.246094-7.398437-1.085937-6.058594-4.773437 2.277344-6.257813 4.59375-11.785156 6.925782-16.464844 1.816406-3.648437 7.3125-2.8125 7.875 1.210938.128906.917969.199218 1.851562.210937 2.78125 0 .050781-.011719.09375-.011719.132812zm0 0" fill="#ef9b1a"/><path d="m414.535156 115.203125h-7.667968c-11.539063 0-20.894532 9.355469-20.894532 20.894531 0 11.542969 9.355469 20.898438 20.894532 20.898438h7.667968c11.539063 0 20.894532-9.355469 20.894532-20.898438 0-11.539062-9.355469-20.894531-20.894532-20.894531zm0 0" fill="#ffc331"/><path d="m414.535156 172.519531h-7.667968c-11.539063 0-20.894532 9.355469-20.894532 20.894531 0 11.539063 9.355469 20.894532 20.894532 20.894532h7.667968c11.539063 0 20.894532-9.355469 20.894532-20.894532 0-11.539062-9.355469-20.894531-20.894532-20.894531zm0 0" fill="#ffc331"/><path d="m474.746094 214.308594h-3.449219c-5.777344 0-11-2.339844-14.773437-6.121094-3.78125-3.78125-6.121094-9.007812-6.121094-14.773438 0-9.601562 6.464844-17.6875 15.285156-20.121093 3.214844 13.457031 6.195312 26.945312 8.878906 40.128906.0625.292969.125.59375.179688.886719zm0 0" fill="#ffc331"/><path d="m414.535156 229.980469h-7.667968c-11.539063 0-20.894532 9.355469-20.894532 20.894531s9.355469 20.894531 20.894532 20.894531h7.667968c11.539063 0 20.894532-9.355469 20.894532-20.894531s-9.355469-20.894531-20.894532-20.894531zm0 0" fill="#ffc331"/><path d="m484.878906 270.914062c-1.871094.5625-3.855468.855469-5.914062.855469h-7.667969c-5.777344 0-11-2.339843-14.773437-6.121093-3.78125-3.78125-6.121094-9.007813-6.121094-14.773438 0-11.542969 9.351562-20.894531 20.894531-20.894531h6.53125c.15625.816406.3125 1.621093.457031 2.425781 2.121094 11.269531 4.011719 22.1875 5.664063 32.550781.324219 2.007813.625 3.992188.929687 5.957031zm0 0" fill="#ffc331"/><path d="m403.269531 57.878906c-9.554687 0-17.296875 7.746094-17.296875 17.296875v7.195313c0 9.550781 7.742188 17.296875 17.296875 17.296875 9.554688 0 17.296875-7.746094 17.296875-17.296875v-7.195313c.003906-9.550781-7.742187-17.296875-17.296875-17.296875zm0 0" fill="#ffc331"/><path d="m407.503906 385.042969-23.277344 92.542969c-7.28125 4.230468-14.804687 8.105468-22.523437 11.617187-219.992187-72.703125-81.042969-373.644531-79.820313-376.277344-8.566406 34.121094 17.03125 73.832031 47.472657 114.535157v.011718c40.664062 54.371094 89.976562 110.535156 78.148437 157.570313zm0 0" fill="#bed37c"/><path d="m373.007812 483.730469c-3.71875 1.910156-7.480468 3.738281-11.292968 5.472656h-.011719c-219.992187-72.703125-81.042969-373.644531-79.820313-376.277344-8.566406 34.121094 17.03125 73.832031 47.472657 114.535157v.011718c-15.273438 60.691406-53.113281 201.449219 43.652343 256.257813zm0 0" fill="#9db750"/><path d="m511.925781 256.035156c0 93.222656-49.84375 174.808594-124.324219 219.566406-3.082031.144532-6.238281.21875-9.464843.21875-26.734375-74.972656 18.1875-127.855468 64.597656-170.554687 26.953125-24.804687 54.398437-46.179687 68.617187-66.46875.386719 5.695313.574219 11.441406.574219 17.238281zm0 0" fill="#bed37c"/><path d="m433.558594 440.363281c-13.894532 13.390625-29.304688 25.230469-45.945313 35.238281 0 0 0 0-.011719 0-3.082031.144532-6.238281.21875-9.464843.21875-26.734375-74.972656 18.1875-127.855468 64.597656-170.554687-27.050781 27.371094-46.085937 97.371094-9.175781 135.097656zm0 0" fill="#9db750"/><path d="m403.273438 31.175781c0-6.058593-3.507813-10.96875-7.835938-10.96875s-7.835938 4.910157-7.835938 10.96875c0 6.058594 3.507813 10.96875 7.835938 10.96875s7.835938-4.910156 7.835938-10.96875zm0 0" fill="#ffc331"/><path d="m206.453125 507.214844c-9.9375-1.941406-19.671875-4.472656-29.160156-7.542969-3.257813-1.035156-6.496094-2.152344-9.695313-3.332031-8.554687-3.15625-16.902344-6.75-25.011718-10.761719-14.699219-7.269531-28.605469-15.921875-41.539063-25.753906l-5.285156-21.8125c-11.441407-47.128907 38.351562-102.878907 79.472656-156.902344v-.019531c30.789063-40.441406 56.710937-79.933594 48.4375-114.128906 1.042969 2.296874 106.300781 235.402343-17.21875 340.253906zm0 0" fill="#9db750"/><path d="m254.824219 437.5c0 27.714844-9.445313 53.167969-25.210938 73.152344-21.582031-2.195313-42.363281-7.082032-62.015625-14.3125-36.117187-13.289063-68.429687-34.5-94.800781-61.503906-15.511719-15.902344-28.992187-33.820313-39.972656-53.316407 14.398437-101.664062 56.929687-279.46875 107.285156-282.019531.367187-.019531.734375-.03125 1.097656-.03125.367188 0 .734375.011719 1.097657.03125 54.304687 2.75 99.511718 209.339844 110.148437 304.429688 1.554687 13.90625 2.371094 25.421874 2.371094 33.570312zm0 0" fill="#ffc331"/><path d="m252.453125 403.929688c-1.128906-10.058594-2.632813-21.363282-4.503906-33.546876-.300781-1.960937-.605469-3.949218-.929688-5.953124-1.648437-10.363282-3.539062-21.28125-5.660156-32.554688-.148437-.804688-.304687-1.609375-.460937-2.425781-.980469-5.160157-2.007813-10.382813-3.082032-15.667969-.050781-.292969-.113281-.597656-.179687-.890625-2.683594-13.183594-5.660157-26.671875-8.878907-40.128906-.0625-.261719-.125-.511719-.1875-.773438-1.242187-5.179687-2.527343-10.363281-3.84375-15.523437-.230468-.910156-.472656-1.828125-.710937-2.738282-2.488281-9.621093-5.097656-19.148437-7.824219-28.46875-.785156-2.675781-1.570312-5.328124-2.375-7.972656-19.429687-63.96875-44.328125-116.402344-71.511718-117.785156-.363282-.019531-.730469-.03125-1.097657-.03125-.363281 0-.730469.011719-1.097656.03125-50.355469 2.550781-92.886719 180.355469-107.285156 282.019531 10.980469 19.496094 24.460937 37.414063 39.972656 53.316407 26.371094 27.003906 58.683594 48.214843 94.800781 61.503906 19.652344 7.230468 40.433594 12.117187 62.015625 14.3125 15.765625-19.984375 25.210938-45.4375 25.210938-73.152344 0-8.148438-.816407-19.664062-2.371094-33.570312zm-119.089844-53.300782c-.074219 11.460938-9.414062 20.757813-20.886719 20.757813h-9.933593c-4.035157 0-7.792969-2.109375-9.8125-5.597657-4.273438-7.386718-6.644531-15.726562-6.644531-24.742187v-.113281c.011718-6.269532 5.121093-11.335938 11.390624-11.335938h15c5.578126 0 10.824219 2.171875 14.785157 6.121094 3.894531 3.90625 6.070312 9.101562 6.101562 14.628906zm0-57.460937c-.074219 11.460937-9.414062 20.757812-20.886719 20.757812h-7.730468c-9.871094 0-17.625-8.398437-16.902344-18.242187.1875-2.664063.394531-5.335938.625-8.023438.730469-8.773437 8.085938-15.523437 16.894531-15.523437h7.113281c5.578126 0 10.824219 2.171875 14.785157 6.121093 3.894531 3.90625 6.070312 9.101563 6.101562 14.628907zm0-57.460938c-.074219 11.460938-9.414062 20.757813-20.886719 20.757813h-3.925781c-8.964843 0-15.871093-7.941406-14.597656-16.820313.605469-4.210937 1.246094-8.378906 1.902344-12.515625 1.148437-7.167968 7.3125-12.453125 14.574219-12.453125h2.046874c5.578126 0 10.824219 2.171875 14.785157 6.121094 3.894531 3.90625 6.070312 9.101563 6.101562 14.625zm0-57.460937c-.074219 11.460937-9.414062 20.757812-20.886719 20.757812-5.191406 0-9.171874-4.242187-9.171874-9.152344 0-.773437.09375-1.554687.304687-2.351562 2.023437-7.773438 4.480469-16.078125 6.296875-22.03125 1.734375-5.675781 8.371094-8.308594 13.4375-5.214844 1.410156.855469 2.714844 1.890625 3.917969 3.082032 3.894531 3.90625 6.070312 9.101562 6.101562 14.625zm0-57.597656v.136718c-.042969 7.03125-3.574219 13.226563-8.945312 16.976563-3.214844 2.246093-7.394531-1.085938-6.058594-4.777344 2.277344-6.257813 4.597656-11.78125 6.925781-16.464844 1.820313-3.644531 7.3125-2.808593 7.878906 1.214844.125.917969.199219 1.847656.207032 2.777344 0 .050781-.007813.09375-.007813.136719zm0 0" fill="#ef9b1a"/><path d="m170.574219 484.511719-2.976563 11.828125c-76.777344-28.25-136.285156-92.242188-158.320312-171.808594 12.777344-62.570312 35.1875-111.089844 35.667968-112.132812-8.558593 34.121093 17.027344 73.832031 47.484376 114.535156l-.011719.011718c40.664062 54.367188 89.984375 110.53125 78.15625 157.566407zm0 0" fill="#bed37c"/><path d="m92.429688 326.933594-.011719.011718c-6.476563 25.761719-17.027344 65.972657-19.621094 107.890626-29.679687-30.414063-51.851563-68.171876-63.519531-110.304688v-.011719c12.777344-62.558593 35.1875-111.078125 35.667968-112.121093-8.558593 34.121093 17.027344 73.832031 47.484376 114.535156zm0 0" fill="#9db750"/><path d="m261.542969 511.9375c-1.851563.042969-3.710938.0625-5.578125.0625-8.890625 0-17.6875-.449219-26.351563-1.347656-18.0625-1.839844-35.570312-5.558594-52.320312-10.980469-3.257813-1.035156-6.496094-2.152344-9.695313-3.332031-8.554687-3.15625-16.902344-6.75-25.011718-10.761719 13.050781-31.257813 37.90625-57.566406 63.207031-80.84375 38.75-35.667969 78.535156-64.242187 78.535156-92.679687 0 0 23.359375 121.996093-22.785156 199.882812zm0 0" fill="#bed37c"/><path d="m177.292969 499.671875c-3.257813-1.035156-6.496094-2.152344-9.695313-3.332031-8.554687-3.15625-16.902344-6.75-25.011718-10.761719 13.050781-31.257813 37.90625-57.566406 63.207031-80.84375-19.023438 19.246094-34.078125 59.582031-28.5 94.9375zm0 0" fill="#9db750"/><g fill="#ffc331"><path d="m177.605469 214.675781h-7.667969c-11.539062 0-20.894531 9.355469-20.894531 20.894531 0 11.539063 9.355469 20.894532 20.894531 20.894532h7.667969c11.542969 0 20.898437-9.355469 20.898437-20.894532 0-11.539062-9.355468-20.894531-20.898437-20.894531zm0 0"/><path d="m224.015625 253.726562c-1.621094-.929687-3.101563-2.066406-4.417969-3.382812-3.785156-3.78125-6.125-9.007812-6.125-14.773438 0-3.75.984375-7.273437 2.71875-10.3125 2.726563 9.320313 5.335938 18.847657 7.824219 28.46875zm0 0"/><path d="m177.605469 271.988281h-7.667969c-11.539062 0-20.894531 9.355469-20.894531 20.898438 0 11.539062 9.355469 20.894531 20.894531 20.894531h7.667969c11.542969 0 20.898437-9.355469 20.898437-20.894531 0-11.542969-9.355468-20.898438-20.898437-20.898438zm0 0"/><path d="m237.816406 313.78125h-3.449218c-5.777344 0-11-2.339844-14.769532-6.125-3.785156-3.78125-6.125-9.003906-6.125-14.769531 0-9.601563 6.46875-17.691407 15.285156-20.125 3.21875 13.457031 6.195313 26.945312 8.878907 40.128906.066406.292969.128906.597656.179687.890625zm0 0"/><path d="m177.605469 329.449219h-7.667969c-11.539062 0-20.894531 9.355469-20.894531 20.898437 0 11.539063 9.355469 20.894532 20.894531 20.894532h7.667969c11.542969 0 20.898437-9.355469 20.898437-20.894532 0-11.542968-9.355468-20.898437-20.898437-20.898437zm0 0"/><path d="m247.949219 370.382812c-1.867188.566407-3.855469.859376-5.914063.859376h-7.667968c-5.777344 0-11-2.339844-14.769532-6.125-3.785156-3.78125-6.125-9.003907-6.125-14.769532 0-11.546875 9.351563-20.898437 20.894532-20.898437h6.53125c.15625.816406.3125 1.621093.460937 2.425781 2.121094 11.273438 4.011719 22.191406 5.660156 32.554688.324219 2.003906.628907 3.992187.929688 5.953124zm0 0"/><path d="m171.628906 157.347656h-3.378906c-10.605469 0-19.207031 8.601563-19.207031 19.207032v3.378906c0 10.605468 8.601562 19.207031 19.207031 19.207031h3.378906c10.605469 0 19.203125-8.601563 19.203125-19.207031v-3.378906c0-10.605469-8.597656-19.207032-19.203125-19.207032zm0 0"/></g></svg>