<svg height="512" viewBox="0 0 512 512" width="512" xmlns="http://www.w3.org/2000/svg"><g id="flat"><path d="m256 80a120 120 0 0 1 120 120v56a0 0 0 0 1 0 0h-240a0 0 0 0 1 0 0v-56a120 120 0 0 1 120-120z" fill="#533222"/><path d="m144 416h224a72 72 0 0 1 72 72 0 0 0 0 1 0 0h-368a0 0 0 0 1 0 0 72 72 0 0 1 72-72z" fill="#0296e5"/><path d="m296 400v-40h-80v40a16 16 0 0 1 -16 16 40 40 0 0 0 40 40h32a40 40 0 0 0 40-40 16 16 0 0 1 -16-16z" fill="#fdc9a6"/><path d="m296 360v22.4a88.133 88.133 0 0 1 -80 0v-22.4z" fill="#fdc9a6"/><path d="m88 320a23.916 23.916 0 0 0 -9.008 1.755 32 32 0 1 0 0 44.49 24 24 0 1 0 9.008-46.245z" fill="#656666"/><path d="m120 40a32 32 0 0 0 -8.96 1.281 24 24 0 0 0 -42.826-6.862 32 32 0 1 0 -12.214 61.581c.381 0 .759-.016 1.137-.029 6.593 4.929 16.182 8.029 26.863 8.029a49.275 49.275 0 0 0 20.242-4.153 32 32 0 1 0 15.758-59.847z" fill="#cbcbcb"/><path d="m256 376a88 88 0 0 1 -88-88v-96a42.388 42.388 0 0 0 36.348-20.58l11.652-19.42a136.567 136.567 0 0 0 96.568 40h31.432v96a88 88 0 0 1 -88 88z" fill="#fdc9a6"/><path d="m296 360v22.4a88.133 88.133 0 0 1 -80 0v-22.4z" fill="#f6bb92"/><path d="m344 288h-176a8 8 0 0 0 0 16h176a8 8 0 0 0 0-16z" fill="#fbb540"/><circle cx="216" cy="240" fill="#533222" r="16"/><circle cx="296" cy="240" fill="#533222" r="16"/><path d="m168 224a0 0 0 0 1 0 0v64a0 0 0 0 1 0 0 32 32 0 0 1 -32-32 32 32 0 0 1 32-32z" fill="#fdc9a6"/><path d="m376 224a0 0 0 0 1 0 0v64a0 0 0 0 1 0 0 32 32 0 0 1 -32-32 32 32 0 0 1 32-32z" fill="#fdc9a6" transform="matrix(-1 0 0 -1 720 512)"/><path d="m224 232h-32a8 8 0 0 1 0-16h28.687l5.656-5.657a8 8 0 0 1 11.314 11.314l-8 8a8 8 0 0 1 -5.657 2.343z" fill="#533222"/><path d="m320 232h-32a8 8 0 0 1 -5.657-2.343l-8-8a8 8 0 0 1 11.314-11.314l5.656 5.657h28.687a8 8 0 0 1 0 16z" fill="#533222"/><path d="m120 488v-24a8 8 0 0 1 16 0v24z" fill="#026ca2"/><path d="m376 488v-24a8 8 0 0 1 16 0v24z" fill="#026ca2"/><path d="m479.914 350.041a23.994 23.994 0 0 0 -32.922-20.286 32 32 0 1 0 -4.7 48.492 24 24 0 1 0 37.619-28.206z" fill="#cbcbcb"/><path d="m471.25 73.117a32.062 32.062 0 0 0 -18.1-22.293 26.637 26.637 0 0 0 -52.61-2.809c-.18 0-.357-.015-.538-.015a24 24 0 1 0 10.926 45.366 31.96 31.96 0 0 0 34.747 18.122 24 24 0 1 0 25.575-38.371z" fill="#656666"/><circle cx="416" cy="256" fill="#cbcbcb" r="8"/><circle cx="152" cy="368" fill="#656666" r="8"/><circle cx="360" cy="352" fill="#cbcbcb" r="8"/><circle cx="408" cy="144" fill="#cbcbcb" r="8"/><circle cx="456" cy="208" fill="#656666" r="8"/><circle cx="64" cy="216" fill="#656666" r="8"/><circle cx="104" cy="280" fill="#cbcbcb" r="8"/><circle cx="32" cy="280" fill="#cbcbcb" r="8"/><circle cx="80" cy="72" fill="#a4a4a4" r="8"/><circle cx="104" cy="168" fill="#cbcbcb" r="8"/><circle cx="472" cy="272" fill="#cbcbcb" r="8"/><circle cx="264" cy="48" fill="#656666" r="8"/><path d="m312 360-19.367 8.3a92.993 92.993 0 0 1 -73.266 0l-19.367-8.3v-64l23.033-6.581a120.006 120.006 0 0 1 65.934 0l23.033 6.581z" fill="#04957c"/><g fill="#2ad3b3"><path d="m280 320h-48a8 8 0 0 1 0-16h48a8 8 0 0 1 0 16z"/><path d="m280 352h-48a8 8 0 0 1 0-16h48a8 8 0 0 1 0 16z"/></g></g></svg>