<svg id="flat" height="512" viewBox="0 0 512 512" width="512" xmlns="http://www.w3.org/2000/svg"><path d="m264 72h128v416h-128z" fill="#0c5177"/><path d="m376 184h112v304h-112z" fill="#b5bbea"/><path d="m471.667 184-18.614 89.345a78.708 78.708 0 0 1 -77.053 62.655v152h112v-304z" fill="#7b81c6"/><path d="m406.059 456h-22.059v-24h80a81.941 81.941 0 0 1 -57.941 24z" fill="#b5bbea"/><path d="m488 264v-16h-24v-40h-16v40h-24v-40h-16v40h-32v16h32v32h-32v16h32v176h16v-176h24v176h16v-176h24v-16h-24v-32zm-40 32h-24v-32h24z" fill="#4e52a8"/><path d="m320 152h16v96h-16z" fill="#c18423"/><path d="m288 152h16v48h-16z" fill="#c18423"/><path d="m352 152h16v96h-16z" fill="#c18423"/><path d="m320 272h16v96h-16z" fill="#c18423"/><path d="m352 272h16v96h-16z" fill="#c18423"/><path d="m184 184h144v304h-144z" fill="#2993ce"/><path d="m296 184-6.991 80.391a171.687 171.687 0 0 1 -105.009 143.609v80h144v-304z" fill="#045f9c"/><path d="m40 136h112v352h-112z" fill="#4895aa"/><path d="m128 136-88 336v16h112v-352z" fill="#2a6377"/><path d="m160 248h-24a24 24 0 0 0 -24-24h-64a24 24 0 0 0 -24 24 24 24 0 0 0 24 24h24a24 24 0 0 0 24 24h64a24 24 0 0 0 24-24 24 24 0 0 0 -24-24z" fill="#d1dee0"/><path d="m160 280h-64a24 24 0 0 1 -24-24h-24a24.006 24.006 0 0 1 -22.629-16 24 24 0 0 0 22.629 32h24a24 24 0 0 0 24 24h64a24 24 0 0 0 22.629-32 24.006 24.006 0 0 1 -22.629 16z" fill="#b6c4c6"/><path d="m24 24h40a40 40 0 0 1 40 40h28a20 20 0 0 1 20 20 20 20 0 0 1 -20 20h-60a24 24 0 0 1 -24 24h-24z" fill="#d1dee0"/><path d="m132 88h-60a24 24 0 0 1 -24 24h-24v16h24a24 24 0 0 0 24-24h60a20 20 0 0 0 20-20 19.928 19.928 0 0 0 -1.675-8 20 20 0 0 1 -18.325 12z" fill="#b6c4c6"/><path d="m184 24a64 64 0 0 0 64 64h24a48 48 0 0 0 94.128 13.267 40 40 0 0 0 73.072-13.267h8.16a40.642 40.642 0 0 0 40.64-40.642v-23.358z" fill="#d1dee0"/><path d="m447.358 72h-8.158a40 40 0 0 1 -73.07 13.267 48 48 0 0 1 -94.13-13.267h-24a64.027 64.027 0 0 1 -61.984-48h-2.016a64 64 0 0 0 64 64h24a48 48 0 0 0 94.128 13.267 40 40 0 0 0 73.072-13.267h8.16a40.642 40.642 0 0 0 40.64-40.642v-16a40.642 40.642 0 0 1 -40.642 40.642z" fill="#b6c4c6"/><path d="m72 432h32v56h-32z" fill="#d1dee0"/><path d="m424 424h32v64h-32z" fill="#96d6e4"/><path d="m352 424h32v64h-32z" fill="#96d6e4"/><path d="m152 440h32v48h-32z" fill="#d1dee0"/><path d="m192 400h296v32h-296z" fill="#4895aa"/><path d="m192 400h296v16h-296z" fill="#96d6e4"/><path d="m488 400h-160.676a15.324 15.324 0 0 1 -15.324-15.324 15.325 15.325 0 0 1 7.44-13.14l28.92-17.352a15.325 15.325 0 0 1 7.884-2.184h131.756z" fill="#96d6e4"/><path d="m314.268 376.669a15.3 15.3 0 0 0 -2.268 8.007 15.324 15.324 0 0 0 15.324 15.324h160.676v-16h-160.676a15.3 15.3 0 0 1 -13.056-7.331z" fill="#4895aa"/><path d="m232 488-10.008-2.5a81.849 81.849 0 0 1 -38.021-21.527 81.843 81.843 0 0 0 -57.871-23.973h-86.1v-48h101.567a160.385 160.385 0 0 1 113.408 46.975 160.377 160.377 0 0 0 78.617 43.156l26.408 5.869z" fill="#d1dee0"/><path d="m303.014 472h-71.014l-10.008-2.5a81.849 81.849 0 0 1 -38.021-21.527 81.843 81.843 0 0 0 -57.871-23.973h-86.1v16h86.1a81.843 81.843 0 0 1 57.871 23.971 81.849 81.849 0 0 0 38.021 21.529l10.008 2.5h128l-26.408-5.869a160.28 160.28 0 0 1 -30.578-10.131z" fill="#b6c4c6"/><path d="m64 160h64v16h-64z" fill="#96d6e4"/><path d="m64 192h64v16h-64z" fill="#96d6e4"/><path d="m64 320h64v16h-64z" fill="#96d6e4"/><path d="m64 352h64v16h-64z" fill="#96d6e4"/><g fill="#ecb347"><path d="m208 216h16v24h-16z"/><path d="m240 216h16v24h-16z"/><path d="m272 216h16v24h-16z"/><path d="m208 376h16v24h-16z"/><path d="m240 376h16v24h-16z"/><path d="m272 376h16v24h-16z"/><path d="m224 256h16v24h-16z"/><path d="m256 256h16v24h-16z"/><path d="m288 256h16v24h-16z"/><path d="m208 296h16v24h-16z"/><path d="m240 296h16v24h-16z"/><path d="m272 296h16v24h-16z"/><path d="m224 336h16v24h-16z"/><path d="m256 336h16v24h-16z"/><path d="m288 336h16v24h-16z"/></g><path d="m392 272h-64a24 24 0 0 0 -24 24 23.949 23.949 0 0 0 1.371 8h-41.371a24 24 0 0 0 -24 24 24 24 0 0 0 24 24h64a24 24 0 0 0 24-24 23.949 23.949 0 0 0 -1.371-8h41.371a24 24 0 0 0 24-24 24 24 0 0 0 -24-24z" fill="#d1dee0"/><path d="m407.914 278.041c.052.647.086 1.3.086 1.959a24 24 0 0 1 -24 24h-41.371a24 24 0 0 1 -22.629 32h-64a23.906 23.906 0 0 1 -15.914-6.041 24 24 0 0 0 23.914 22.041h64a24 24 0 0 0 22.629-32h41.371a24 24 0 0 0 15.914-41.959z" fill="#b6c4c6"/><path d="m360 192a16 16 0 0 1 16-16h24v-8a24 24 0 0 1 24-24 24 24 0 0 1 24 24v8h24a16 16 0 0 1 16 16 16 16 0 0 1 -16 16h-96a16 16 0 0 1 -16-16z" fill="#d1dee0"/><path d="m352 368h16v16h-16z" fill="#045f9c"/><path d="m384 368h16v16h-16z" fill="#045f9c"/><path d="m416 368h16v16h-16z" fill="#045f9c"/><path d="m448 368h16v16h-16z" fill="#045f9c"/></svg>