<svg id="Capa_1" enable-background="new 0 0 512 512" height="512" viewBox="0 0 512 512" width="512" xmlns="http://www.w3.org/2000/svg"><g><g><path d="m285 475h-240c-8.284 0-15-6.716-15-15v-35.076c0-33.589 6.465-66.369 19.215-97.43 10.778-26.255 25.613-50.246 44.19-71.494-18.577-21.249-33.412-45.24-44.19-71.495-12.75-31.061-19.215-63.841-19.215-97.43v-35.075c0-8.284 6.716-15 15-15h240c8.284 0 15 6.716 15 15v35.075c0 33.589-6.465 66.369-19.216 97.43-10.777 26.255-25.613 50.247-44.189 71.495 18.577 21.249 33.412 45.24 44.189 71.495 12.751 31.06 19.216 63.84 19.216 97.429v35.076c0 8.284-6.716 15-15 15z" fill="#fff5f5"/></g><g><path d="m300 87.075v-35.075c0-8.284-6.716-15-15-15h-120v438h120c8.284 0 15-6.716 15-15v-35.076c0-33.589-6.465-66.369-19.216-97.429-10.777-26.255-25.612-50.246-44.189-71.495 18.577-21.248 33.412-45.24 44.189-71.495 12.751-31.061 19.216-63.841 19.216-97.43z" fill="#e1ebf0"/></g><path d="m227.388 364.72c-17.208-15.296-39.365-23.72-62.388-23.72s-45.18 8.424-62.388 23.72l-51.75 46.001c-13.27 11.795-20.862 28.702-20.862 46.456h270c0-17.754-7.592-34.661-20.862-46.456z" fill="#ff9f22"/><g><path d="m300 457.177c0-17.754-7.592-34.661-20.862-46.456l-51.75-46.001c-17.208-15.296-39.365-23.72-62.388-23.72v116.177z" fill="#dd7d00"/></g><g><path d="m295 511h-260c-19.33 0-35-15.67-35-35 0-19.33 15.67-35 35-35h260c19.33 0 35 15.67 35 35 0 19.33-15.67 35-35 35z" fill="#0a789b"/></g><g><path d="m295 441h-130v70h130c19.33 0 35-15.67 35-35 0-19.33-15.67-35-35-35z" fill="#08475e"/></g><g><g><path d="m295 71h-260c-19.33 0-35-15.67-35-35 0-19.33 15.67-35 35-35h260c19.33 0 35 15.67 35 35 0 19.33-15.67 35-35 35z" fill="#0a789b"/></g><g><path d="m295 1h-130v70h130c19.33 0 35-15.67 35-35 0-19.33-15.67-35-35-35z" fill="#08475e"/></g><g><path d="m165 237.536c-4.042 0-7.912-1.631-10.735-4.523l-8.241-8.444c-23.145-23.713-40.028-52.949-48.825-84.545-1.258-4.518-.331-9.363 2.506-13.097 2.836-3.734 7.255-5.927 11.944-5.927h106.701c4.689 0 9.108 2.192 11.944 5.927 2.836 3.733 3.764 8.579 2.506 13.097-8.796 31.596-25.68 60.832-48.825 84.546l-8.241 8.443c-2.822 2.892-6.692 4.523-10.734 4.523z" fill="#ff9f22"/></g><g><path d="m230.295 126.927c-2.836-3.734-7.255-5.927-11.944-5.927h-53.351v116.536c4.042 0 7.912-1.631 10.735-4.523l8.241-8.443c23.146-23.714 40.029-52.95 48.825-84.546 1.258-4.518.33-9.364-2.506-13.097z" fill="#dd7d00"/></g><circle cx="377" cy="376" fill="#fff04a" r="135"/><g><path d="m377 241v270c74.439 0 135-60.561 135-135s-60.561-135-135-135z" fill="#ffcd00"/></g><circle cx="377" cy="376" fill="#ffcd00" r="105"/><g><path d="m377 271v210c57.897 0 105-47.103 105-105s-47.103-105-105-105z" fill="#ff9f22"/></g></g><path d="m393.209 366.656c-2.043-.722-4.125-1.473-6.209-2.248v-39.89c4.684 1.455 7.077 3.823 7.255 4.004 3.635 4.126 9.923 4.546 14.072.93 4.164-3.628 4.6-9.944.972-14.108-3.695-4.242-11.384-9.563-22.299-11.348v-7.996c0-5.522-4.478-10-10-10s-10 4.478-10 10v8.84c-1.29.299-2.6.641-3.937 1.043-13.034 3.927-22.771 15.068-25.411 29.077-2.414 12.811 1.717 25.186 10.78 32.293 4.71 3.694 10.558 7.07 18.567 10.629v50.507c-6.628-.546-10.942-2.238-18.206-6.991-4.625-3.026-10.821-1.727-13.843 2.894-3.023 4.622-1.728 10.82 2.894 13.843 11.382 7.446 19.177 9.71 29.155 10.303v7.562c0 5.522 4.478 10 10 10s10-4.478 10-10v-8.699c18.561-4.579 30.462-20.376 33.081-35.952 3.394-20.18-7.154-37.723-26.871-44.693zm-32.435-15.14c-3.117-2.444-4.479-7.489-3.468-12.853.89-4.728 3.904-10.36 9.693-12.936v29.853c-2.326-1.308-4.437-2.662-6.225-4.064zm39.583 56.517c-1.177 7.002-5.708 14.403-13.357 18.132v-40.477c14.928 5.547 14.007 18.48 13.357 22.345z" fill="#fff04a"/><g><path d="m393.209 366.656c-2.043-.722-4.125-1.473-6.209-2.248v-39.89c4.684 1.455 7.077 3.823 7.255 4.004 3.635 4.126 9.923 4.546 14.072.93 4.164-3.628 4.6-9.944.972-14.108-3.695-4.242-11.384-9.563-22.299-11.348v-7.996c0-5.522-4.478-10-10-10v180c5.522 0 10-4.478 10-10v-8.699c18.561-4.579 30.462-20.376 33.081-35.952 3.393-20.18-7.155-37.723-26.872-44.693zm7.148 41.377c-1.177 7.002-5.708 14.403-13.357 18.132v-40.477c14.928 5.547 14.007 18.48 13.357 22.345z" fill="#ffcd00"/></g></g></svg>