<svg id="Layer_1" enable-background="new 0 0 512.005 512.005" height="512" viewBox="0 0 512.005 512.005" width="512" xmlns="http://www.w3.org/2000/svg"><g><g clip-rule="evenodd" fill-rule="evenodd"><path d="m258.507 45.769c-12.864-3.914-13.187 8.468-24.929 9.559-6.67.619-13.237 5.968-18.174 11.243-14.93 15.954-10.853 19.49 1.096 33.115 5.2 5.93.859 19.601 13.788 18.187 4.596-.503 6.299-3.244 14.636-1.202 9.066 2.22 9.226-15.898 9.545-17.435 2.529-12.147 11.177-9.39 6.652-23.91-1.458-4.68 3.578-27.673-2.614-29.557z" fill="#88df8e"/><path d="m219.386 161.191c-23.891 0-6.324 13.966-44.078-15.366-14.68-11.405-37.111-32.967-37.111 9.137 0 15.015 20.257 13.268 19.792 28.795-.395 13.191-13.13 21.316-23.749 15.868-10.759-5.519-25.471-19.291-36.076-17.82-34.177 4.743-11.809-16.59-32.092-21.514l-56.072 77.293c7.542 8.798 1.848 27.292 8.842 27.292 8.112 0 5.398 26.786 5.398 34.861 3.785 16.868-14.394 11.886-5.398 49.403 16.028 66.841 53.557 40.254 103.099 61.253 12.198 5.17 77.216 15.291 90.325 9.665 6.563-2.817 38.544 2.663 41.692 4.498 14.11 8.228 34.979-18.26 52.334-2.545 17.152 15.531 34.296 8.069 29.899 26.021-5.702 23.279 20.64 24.051 29.057 8.267 10.254-19.229 34.442-41.378 48.385-44.262 3.687-31.969 1.211-18.055 11.695-15.885 4.059 19.622 37.599-8.723 22.645-21.077-18.131-14.98-22.77-23.795-18.893-29.457 4.534-6.62 13.661-1.096 19.204-12.718 15.481-32.46 14.119 9.404 29.566 11.238 5.082.603 14.953-9.982 22.457-15.381 12.71-9.145-50.011-45.658-60.43-47.09-26.073-3.584-50.321-23.849-58.61-23.849 0 9.234-15.267 29.399-24.221 18.811-13.724-16.228-55.881-3.547-47.244 2.648 15.473 11.097 2.39 21.263 9.446 25.267 36.323 20.616 4.751 32.145 6.297 38.453 2.065 8.425-1.218 24.862-9.832 27.483-23.101 7.032-33.086-23.825-33.959-28.983-2.203-13.008-37.26 7.681-43.552-22.714-21.252-4.396-6.185-50.24 11.92-53.098 25.05 1.204 31.674-15.954 24.442-26.622-13.096-19.319-9.783-35.992 2.712-41.074 10.21-4.153 17.715-6.751 23.449 3.347 9.602 16.91-12.792 30.965 31.433 31.837 15.31.302 25.773-8.265 16.785-22.26-19.002-29.586 4.29-19.425 5.308-26.297 2.833-19.132-23.741-22.564-36.809-23.391-3.552-.225-71.702-28.964-78.341-.189-1.452.504-16.851.155-19.715.155z" fill="#88df8e"/><ellipse cx="114.373" cy="157.625" fill="#fff" rx="20" ry="20" transform="matrix(.987 -.159 .159 .987 -23.634 20.217)"/><path d="m134.373 157.625c0 11.046-8.954 20-20 20s-20-8.954-20-20 8.954-20 20-20 20 8.954 20 20zm40 .476c0-4.944-.622-9.781-1.791-14.428-6.553-26.044-30.303-46.156-58.209-46.049-32.886-.126-60 27.827-60 60.477 0 5.01.741 10.212 2.064 15.475 9.087 36.154 45.626 75.206 57.936 75.206 14.101 0 60-51.249 60-90.681z" fill="#ff5a58"/></g><g><path d="m511.538 321.928c-.864-3.478-3.16-12.718-33.093-31.784-9.867-6.284-28.806-17.229-37.206-18.384-13.961-1.919-27.72-9.46-38.774-15.52-9.254-5.072-15.367-8.423-21.198-8.423-5.523 0-9.999 4.422-9.999 9.944-.2 3.037-4.554 9.341-7.541 11.34-11.33-12.055-31.829-11.981-46.254-8.136-11.169 2.979-17.438 7.806-18.634 14.348-.851 4.654 1.068 9.173 5.134 12.089 4.274 3.065 4.105 4.145 3.479 8.158-.541 3.464-1.977 12.665 6.859 17.681 11.79 6.691 12.478 10.504 12.483 10.541.164 1.111-3.359 4.807-4.517 6.021-3.446 3.612-8.165 8.561-6.445 15.575 1.269 5.177-1.184 13.958-3.248 15.601-3.299.958-5.967.656-8.622-.971-7.367-4.511-11.815-17.185-12.349-20.18-1.078-6.36-5.545-10.91-12.259-12.484-3.756-.881-7.769-.797-12.02-.71-13.556.289-17.485-.916-19.34-9.877-.809-3.905-3.861-6.957-7.767-7.766-2.119-.438-2.482-3.965-2.414-6.847.282-11.866 8.275-24.688 13.236-26.419 15.298.369 27.28-5.201 33.022-15.43 4.741-8.445 4.27-18.73-1.23-26.844-5.464-8.061-7.763-16.05-6.15-21.371.711-2.348 2.136-3.927 4.354-4.829 2.371-.964 7.89-3.209 9.527-2.933.148.116.688.599 1.458 1.954 1.615 2.844 1.551 5.599 1.313 9.858-.286 5.114-.677 12.12 4.796 18.022 5.602 6.042 15.401 8.654 33.824 9.018 12.768.267 23.152-4.515 27.755-12.749 2.371-4.241 5.217-13.116-2.36-24.913-2.442-3.802-3.866-6.497-4.696-8.334 3.916-.973 10.344-3.415 11.482-11.095 1.098-7.409-.678-14.236-5.134-19.744-7.068-8.736-20.172-13.657-40.047-15.032-.852-.267-2.456-.813-3.903-1.306-26.631-9.07-56.197-17.039-73.572-7.367-3.873 2.155-6.949 5.095-9.124 8.677-3.404-.011-7.489-.053-9.553-.08-1.557-.021-2.788-.037-3.424-.037-8.268 0-12.881 1.417-16.433 2.858-3.566-2.181-11.973-8.712-21.51-16.121-.05-.039-.103-.07-.153-.107-3.409-11.087-9.549-21.391-17.94-29.75-13.244-13.192-30.547-20.447-48.677-20.447-.175 0-.349 0-.524 0-18.204 0-35.51 7.256-48.753 20.447-13.36 13.31-21.023 31.545-21.023 50.03 0 4.441.483 8.879 1.318 13.257l-43.786 60.355c-2.718 3.746-2.51 8.867.502 12.38 1.606 1.874 1.972 7.199 2.24 11.088.233 3.389.453 6.591 1.346 9.549 1.53 5.065 4.709 7.923 8.071 9.24.951 5.072.508 16.01.348 19.956-.092 2.286-.172 4.26-.172 5.813 0 .736.082 1.471.243 2.189.624 2.781.412 3.127-1.615 6.44-5.333 8.718-9.633 18.574-3.75 43.105 12.447 51.912 39.197 55.171 67.517 58.621l.254.031c.411.05.818.074 1.222.074 4.982 0 9.296-3.72 9.914-8.791.668-5.482-3.235-10.469-8.717-11.137l-.254-.031c-26.617-3.242-41.279-5.029-50.488-43.432-4.44-18.519-1.49-23.341 1.362-28.004 2.622-4.286 6.174-10.093 4.324-20.018.024-1.088.081-2.489.144-4.053.651-16.092.637-28.936-5.818-35.658-1.123-1.169-2.405-2.111-3.795-2.805-.07-.824-.13-1.703-.183-2.464-.311-4.526-.7-10.186-2.761-15.514l31.567-43.512c5.526 12.093 12.499 22.505 17.664 29.427 4.308 5.773 26.64 34.573 43.303 34.573s38.995-28.8 43.303-34.573c9.085-12.177 23.774-35.142 26.312-59.087 4.207 3.154 7.082 5.156 9.446 6.516 6.794 3.912 11.335 3.354 16.46 1.185 1.808-.765 3.856-1.631 9.492-1.631.586 0 1.721.016 3.156.035 16.26.217 17.708-.004 19.832-.74 3.253-1.126 5.698-3.847 6.472-7.201.359-1.556 1-2.417 2.369-3.178 5.451-3.037 19.836-3.968 57.397 8.823 4.864 1.657 6.332 2.157 8.199 2.275 19.534 1.236 25.203 6.011 26.567 7.61-3.708 1.106-8.348 3.377-10.663 8.87-2.976 7.062-.711 15.356 7.815 28.632 1.692 2.635 1.792 4.108 1.732 4.343-.345.688-3.466 2.636-9.906 2.515-13.201-.261-17.759-1.761-19.15-2.431-.04-.897.042-2.361.105-3.498.284-5.075.712-12.744-3.89-20.849-10.277-18.102-26.953-11.316-35.912-7.673-7.823 3.183-13.491 9.416-15.958 17.552-3.447 11.367-.345 25.004 8.735 38.397 1.239 1.828 1.369 4.008.345 5.83-2.041 3.637-8.032 5.582-16.03 5.192-.683-.034-1.365.005-2.04.11-18.442 2.912-30.335 28.674-30.743 45.862-.276 11.639 4.154 20.441 12.112 24.682 7.342 20.91 27.653 20.493 37.818 20.278 1.484-.031 3.441-.074 4.973-.02 2.185 7.587 8.421 22.804 20.675 30.38 7.611 4.706 16.335 5.763 25.228 3.057 13.314-4.053 18.708-22.639 17.299-35.57.281-.3.569-.602.826-.871 4.271-4.478 11.418-11.973 9.83-22.741-1.245-8.439-7.38-15.85-19.226-23.144.62-4.153 1.264-10.838-3.159-17.822 8.354-1.82 20.651-2.208 25.214 3.188 5.135 6.072 12.653 8.068 20.115 5.337 7.51-2.749 14.108-9.981 18.011-17.524 1.757.93 3.614 1.947 5.315 2.88 11.813 6.475 27.981 15.337 45.554 17.78 2.757.62 14.621 6.155 28.813 15.148 12.88 8.161 19.638 14.046 22.774 17.421-1.197.987-2.392 2.003-3.57 3.005-2.236 1.9-5.642 4.796-7.896 6.309-1.511-1.881-3.414-5.894-4.423-8.022-3.127-6.596-7.02-14.805-16.084-14.814-.005 0-.01 0-.015 0-8.933 0-14.289 8.646-18.746 17.991-1.113 2.333-1.461 2.413-4.794 3.173-3.554.812-9.504 2.168-13.635 8.2-11.221 16.383 11.2 34.907 20.774 42.816.089.074.15.133.189.174.011.613-.503 2.416-2.276 4.67-1.698 2.159-3.614 3.604-5.068 4.424-1.297-2.886-3.912-5.033-7.094-5.691-.551-.114-.964-.455-1.918-1.326-3.925-3.585-7.994-4.619-12.088-3.084-6.066 2.277-7.069 8.404-7.498 11.021-.396 2.423-.795 5.952-1.398 11.294-.013.114-.026.23-.039.348-17.555 7.68-38.586 29.348-47.99 46.981-2.402 4.505-7.644 6.104-10.056 5.178-1.459-.558-.978-4.261-.464-6.361.748-3.053 3.023-12.343-3.451-19.555-3.595-4.004-8.477-5.741-13.198-7.421-5.014-1.785-10.697-3.808-16.251-8.836-14.409-13.048-30.538-6.416-41.21-2.026-4.587 1.886-10.871 4.47-12.798 3.345-4.263-2.486-17.688-4.51-23.261-5.265-20.457-2.77-25.332-.678-27.393.207-2.861 1.117-16.137 1.613-40.986-1.593-5.482-.702-10.491 3.161-11.198 8.639s3.161 10.49 8.638 11.197c25.944 3.348 43.098 3.452 51.004.313 5.536-1.074 28.548 2.422 33.734 4.124 10.286 5.58 21.125 1.124 29.866-2.471 11.535-4.744 15.824-5.59 20.179-1.646 8.512 7.707 16.868 10.681 22.969 12.853 1.387.494 3.146 1.12 4.273 1.628-.057.426-.161.999-.344 1.748-4.121 16.825 4.292 26.569 12.75 29.802 2.766 1.057 5.689 1.558 8.639 1.558 10.308-.001 20.932-6.119 26.205-16.008 9.438-17.698 31.429-37.072 41.587-39.174 4.226-.875 7.414-4.36 7.908-8.647.102-.884.199-1.733.292-2.549 2.023 1.183 4.333 1.924 6.863 2.163 11.861 1.113 24.641-9.734 29.127-20.576 3.921-9.476 1.862-18.767-5.507-24.854-10.438-8.624-14.303-13.621-15.726-16.031.102-.023.202-.046.297-.068 4.584-1.046 13.118-2.992 18.397-14.063.045-.096.09-.189.135-.282 3.545 7.156 8.916 15.922 19.225 17.146 7.847.921 14.732-4.922 22.705-11.698 2.461-2.092 4.786-4.068 6.772-5.497 4.84-3.479 6.855-9.065 5.394-14.945zm-368.566-111.483c-12.622 17.424-24.554 26.758-28.599 28.223-4.046-1.465-15.978-10.799-28.599-28.222-13.601-18.775-21.401-37.854-21.401-52.345 0-13.206 5.518-26.277 15.138-35.861 9.467-9.431 21.762-14.617 34.716-14.617h.369c12.877 0 25.173 5.188 34.64 14.617 9.62 9.584 15.138 22.655 15.138 35.861-.001 14.491-7.802 33.57-21.402 52.344z"/><path d="m207.856 104.999.993 1.13c.329.676.723 2.546.988 3.801.726 3.437 1.628 7.714 4.483 11.438 2.392 3.12 6.734 6.606 14.202 6.606.904-.001 1.856-.052 2.854-.161 2.477-.271 4.392-.897 5.791-1.354 1.82-.594 2.434-.795 5.378-.075 4.484 1.097 8.945.271 12.562-2.334 6.861-4.94 8.5-14.242 9.197-22.689.014-.171.026-.324.038-.457.522-2.236 1.301-3.201 2.658-4.883 3.97-4.918 7.526-10.755 3.847-23.087-.058-1.285.169-4.418.338-6.751.852-11.773 1.912-26.427-9.767-29.98-12.615-3.839-19.514 2.358-23.636 6.059-2.608 2.343-3.453 2.955-5.127 3.11-8.07.749-16.331 5.583-24.551 14.367-7.939 8.482-13.059 15.937-12.24 24.744.714 7.69 5.691 13.35 11.992 20.516zm14.85-31.595c6.68-7.138 10.719-8.019 11.798-8.119 8.447-.784 13.378-5.213 16.642-8.144.163-.146.341-.307.527-.472-.055 2.813-.29 6.06-.436 8.069-.481 6.654-.685 10.279.338 13.562.73 2.343.831 3.489.836 3.908-.22.315-.646.843-.973 1.248-2.092 2.591-5.252 6.506-6.758 13.739-.166.797-.223 1.481-.308 2.518-.256 3.104-.588 5.152-.9 6.499-5.58-.779-9.241.165-12.522 1.236-.464.152-.816.267-1.103.347-.161-.668-.316-1.405-.441-1.997-.77-3.647-1.824-8.644-5.387-12.706l-1.144-1.301c-2.973-3.382-6.661-7.575-7.084-9.124.113-.55.938-2.876 6.915-9.263z"/><path d="m114.373 127.625c-16.542 0-30 13.458-30 30s13.458 30 30 30 30-13.458 30-30-13.458-30-30-30zm0 40c-5.514 0-10-4.486-10-10s4.486-10 10-10 10 4.486 10 10-4.486 10-10 10z"/><path d="m121.941 400.393h-.007c-5.523 0-9.996 4.478-9.996 10s4.48 10 10.003 10 10-4.478 10-10-4.477-10-10-10z"/></g></g></svg>