<svg id="Layer_1" enable-background="new 0 0 511.983 511.983" height="512" viewBox="0 0 511.983 511.983" width="512" xmlns="http://www.w3.org/2000/svg"><g><g clip-rule="evenodd" fill-rule="evenodd"><ellipse cx="297.42" cy="156.647" fill="#fff" rx="20" ry="20" transform="matrix(.978 -.207 .207 .978 -25.993 64.989)"/><path d="m297.42 136.647c11.046 0 20 8.954 20 20s-8.954 20-20 20-20-8.954-20-20 8.954-20 20-20zm60 20.476c0-32.651-27.114-60.603-60-60.477-32.886-.126-60 27.827-60 60.477 0 39.432 45.898 90.681 60 90.681 14.102-.001 60-51.25 60-90.681z" fill="#ff5a58"/><path d="m357.42 157.123c0 39.432-45.898 90.681-60 90.681s-60-51.249-60-90.681c0-32.651 27.114-60.603 60-60.477 32.887-.126 60 27.826 60 60.477zm-56.088-147.123c-60.138 14.433-17.958 9.915-39.87 40.692-2.246 3.154 5.874 10.14-21.676 20.635-16.796 6.399-32.579-3.81-34.33 17.211-.601 7.213-29.638 15.267-41.767-8.097-8.352-16.088-38.074-19.554-33.532-1.689 3.66 14.396 14.141 42.869 3.17 44.601.213 2.704-11.574 2.76-12.284-.671-4.219-1.46-24.482 13.748-34.006-13.764-42.204-8.732-12.443 17.656-42.843-3.031-7.989-5.436-44.048 6.035-21.792 15.569 14.736 6.313-23.072 19.918 3.031 32.872 12.194 6.052 9.774-1.032 27.945 9.3 15.047 8.555 59.035 36.878 42.913 59.522-.701.985 4.955 26.456 19.224 30.559 11.194 3.219 4.167 32.353 12.423 39.396 4.411 3.763-6.854 15.178-7.495 28.014-2.428 48.623-52.089 98.988-39.254 104.186 23.228 9.406 5.36 18.262 17.991 25.554 4.254 2.456 10.396 5.023 19.366 7.418 4.375 1.168 5.206 6.755 21.26 6.755 7.235 0 7.018 10.786 40.414 3.979 17.313-3.529 3.931 15.526 31.647 8.837 16.523-3.988.686 23.817 25.84 18.692 8.393-1.71 12.603 11.571 26.187 1.897 3.396-2.419 11.099 1.248 13.625 3.493-6.464-30.159 3.582-46.905 33.937-54.71 30.481-7.837 6.742 13.668 47.77 8.027 20.207-2.778 26.881 19.827 44.215 20.741 9.31.491 23.105-6.505 25.347-17.503 2.383-11.692 38.028-4.158 41.293-30.698 2.166-17.606 13.359-12.174-12.747-14.505-.47-.042-27.421-15.659-6.824-28.546 11.096-6.943-37.136-35.989-3.84-34.677 4.495.177 14.05-10.821-1.689-21.653-10.653-7.332 9.98-10.508 6.755-18.021-7.7-17.937 5.218-22.711-21.916-29.98-13.271-3.555-13.926-31.36 6.492-33.599 13.695-1.502 20.621-15.641 28.911-17.318 15.483-3.133 4.797-53.602 22.532-69.099 24.196-21.143-5.131-26.253-33.867-32.109-11.054-2.253-7.874-10.716-24.29-14.574-14.904-3.502-5.473-13.702-31.3-16.194-28.224-2.722-13.218-24.359-27.737-24.359-35.722 0-21.115-14.617-42.161-29.528-13.613-9.642-19.193-22.312-27.068-33.625z" fill="#88df8e"/></g><g><path d="m506.156 142.479c-3.863-14.581-24.128-18.692-47.592-23.452l-2.682-.545c-1.803-.367-2.096-.692-4.004-2.81-3.187-3.537-8.003-8.882-19.995-11.7-2.7-.634-2.951-.966-4.58-3.124-4.543-6.015-10.105-11.558-28.048-13.289-9.198-.887-9.659-2.878-10.892-8.201-1.026-4.432-3.752-16.204-17.805-16.204-10.074 0-14.323-1.28-16.113-2.353-1.365-.819-2.056-2.029-3.836-5.559-2.695-5.342-6.386-12.659-16.431-19.776-8.713-6.173-13.688-14.081-18.954-22.453-1.799-2.858-3.658-5.814-5.685-8.726-2.354-3.381-6.539-4.971-10.542-4.012-27.243 6.539-35.788 9.461-39.917 16.228-3.108 5.093-1.908 10.005-1.191 12.939.807 3.303 1.641 6.719-4.573 15.447-2.415 3.392-2.351 6.957-2.319 8.671.002.143.006.314.006.462-.632.779-3.577 3.691-14.778 7.958-4.237 1.614-8.814 1.813-13.24 2.006-9.134.397-24.136 1.051-27.144 20.707-2.101.892-6.285 1.814-10.94.861-5.413-1.107-9.564-4.378-12.339-9.722-8.099-15.6-28.772-22.219-41.15-17.502-9.286 3.537-13.584 12.52-10.949 22.885.653 2.566 1.486 5.473 2.368 8.55 1.729 6.028 5.54 19.321 5.42 24.968-.219.129-.433.266-.64.411-.953-.831-2.068-1.485-3.3-1.912-4.029-1.393-7.728-.28-11.304.796-7.953 2.395-12.335 3.714-16.522-8.381-1.152-3.33-3.973-5.808-7.424-6.521-16.263-3.366-26.326-2.584-32.576 2.874-1.577-.982-3.73-2.383-6.666-4.381-8.84-6.015-25.729-2.34-34.523 2.624-9.169 5.177-10.218 11.802-10.027 15.291.265 4.84 2.847 8.919 7.694 12.176-3.716 4.694-8.435 11.41-6.585 19.806 1.418 6.437 6.197 11.595 14.609 15.77 6.52 3.236 10.304 3.713 14.234 3.972 2.506.165 4.874.321 13.214 5.063 18.602 10.576 38.526 26.468 41.104 38.13.584 2.643.167 4.706-1.395 6.899-1.589 2.232-3.765 5.289.889 18.615 2.877 8.237 9.547 22.417 22.352 26.919.92 2.434 1.364 8.376 1.64 12.074.592 7.936 1.201 16.092 5.15 22.045-.418.935-.918 1.986-1.341 2.872-1.367 2.87-3.068 6.442-4.352 10.359-1.72 5.249 1.141 10.897 6.39 12.616s10.897-1.141 12.616-6.39c.885-2.7 2.165-5.387 3.402-7.985 3.003-6.303 7.518-15.784-.124-22.681-1.024-1.974-1.506-8.425-1.797-12.327-.81-10.845-1.918-25.697-14.691-29.37-5.335-1.535-10.133-12.788-11.625-18.766 3.065-5.905 3.902-12.465 2.414-19.198-5.099-23.069-37.188-43.491-50.747-51.2-11.403-6.484-16.613-7.294-21.786-7.634-2.058-.135-3.19-.21-6.657-1.93-1.803-.895-2.877-1.629-3.49-2.124.737-1.237 2.156-3.003 3.091-4.168 3.312-4.125 7.848-9.776 6.067-16.904-.507-2.028-1.656-4.562-4.202-6.817 2.999-.738 6.11-1.131 7.811-.805 11.218 7.614 16.48 10.562 22.475 9.134 4.821-1.148 7.06-4.735 8.002-6.409 1.129-.215 4.025-.474 10.215.487 10.945 23.154 30.804 17.84 38.367 15.581 3.909 1.906 8.846 2.373 13.362 1.731 3.604-.514 6.178-1.78 7.979-3.375 2.288-1.192 4.229-2.968 5.668-5.225 5.726-8.982 2.3-23.167-3.165-42.226-.786-2.738-1.53-5.335-2.096-7.52 3.874-.178 11.88 2.595 14.851 8.316 9.909 19.086 28.82 22.774 42.002 20.129 10.845-2.175 17.975-8.233 18.605-15.81.264-3.165.854-4.313 1.012-4.569 1.075-.554 4.882-.719 7.423-.83 5.45-.237 12.232-.532 19.49-3.297 19.13-7.287 27.265-14.942 27.639-26.18 7.907-11.919 8.231-20.397 6.811-27.639 4.424-1.702 12.681-3.878 19.063-5.468.475.749.952 1.508 1.438 2.28 5.794 9.21 12.361 19.648 24.321 28.122 5.989 4.243 7.911 8.053 10.136 12.464 5.45 10.804 11.277 18.527 35.957 18.891.06.251.117.5.17.729 1.603 6.923 4.938 21.33 28.456 23.598 10.682 1.03 12.149 2.973 14.007 5.433 2.482 3.287 6.232 8.254 15.966 10.542 5.898 1.386 7.416 3.07 9.712 5.619 2.79 3.096 6.61 7.336 14.868 9.02l2.7.548c10.191 2.067 26.714 5.419 31.601 8.871-.672 1.029-2.09 2.803-5.017 5.361-11.995 10.481-13.886 29.599-15.555 46.466-.693 7.011-1.721 17.398-3.525 20.63-5.6 1.493-9.838 5.305-13.944 9-4.228 3.802-8.22 7.394-12.929 7.911-13.763 1.509-23.726 11.908-24.793 25.876-.99 12.958 6.077 24.449 16.804 27.323 7.905 2.118 10.457 3.576 11.215 4.137.104.644.181 1.838.238 2.753.205 3.201.494 7.739 2.354 13.397-.12.091-.236.178-.345.259-3.347 2.519-8.947 6.733-8.794 13.941.068 3.236 1.409 7.961 7.41 12.091 2 1.377 3.141 2.551 3.75 3.371-5.528.146-13.534 1.458-16.986 8.578-4.503 9.285 2.771 17.796 9.806 26.027 1.267 1.482 3.024 3.539 4.407 5.33-8.676 7.891-7.859 16.623-6.96 20.372 1.348 5.62 5.065 11.032 11.049 16.088 5.058 4.273 9.121 6.573 12.068 6.833 1.509.135 2.897.245 4.175.335-.178.939-.335 1.935-.464 2.988-1.03 8.371-7.016 10.824-19.48 14.085-8.688 2.273-19.499 5.102-21.687 15.836-1.031 5.058-9.581 9.8-15.021 9.514-4.248-.224-7.82-3.132-13.298-7.857-7.305-6.303-17.305-14.937-32.807-12.805-10.524 1.447-15.023.747-16.769.202-1.07-.335-1.193-.489-2.366-1.959-6.696-8.394-14.483-9.979-29.763-6.048-29.61 7.613-43.885 24.087-43.274 50.153-2.651.164-5.26.938-7.599 2.604-3.148 2.242-3.148 2.241-6.828.085-3.43-2.011-8.617-5.047-15.555-3.635-2.04.416-3.29.455-3.971.421-.272-.873-.542-2.255-.737-3.251-.81-4.144-2.035-10.405-7.771-14.086-3.763-2.414-8.375-2.986-13.711-1.698-5.651 1.364-8.165 1.199-8.974 1.068-.188-.285-.432-.691-.627-1.015-2.146-3.57-7.172-11.93-21.696-8.968-19.965 4.069-24.717 1.181-27.862-.73-2.261-1.374-5.677-3.451-10.555-3.451-8.021 0-9.983-1.455-11.88-2.861-1.548-1.148-3.667-2.719-6.8-3.556-7.199-1.922-12.9-4.081-16.946-6.417-.041-.024-.08-.047-.117-.069.009-.303.023-.634.035-.918.338-7.882-1.24-16.009-13.773-22.684 2.039-4.469 6.093-11.421 9.03-16.457 2.782-4.771 1.17-10.894-3.601-13.676-4.771-2.781-10.894-1.17-13.676 3.601-9.46 16.223-15.171 26.016-12.237 34.608 1.25 3.662 3.948 6.492 7.596 7.97 4.949 2.004 6.402 3.463 6.705 3.822.042.409.003 1.294-.025 1.96-.181 4.229-.558 13.03 10.064 19.163 5.523 3.189 12.468 5.895 21.219 8.267.186.133.422.309.615.451 4.352 3.227 10.078 6.665 23.048 6.792.275.159.626.372.91.545 7.385 4.488 16.731 8.436 42.244 3.236.255-.052.481-.093.682-.125 5.848 9.577 14.244 12.421 28.56 9.499.869 4.415 2.419 11.414 8.868 15.716 4.802 3.204 10.933 4.044 18.728 2.566.544.255 1.42.769 2.096 1.165 2.821 1.653 7.425 4.353 13.505 4.353 3.812 0 8.204-1.062 13.098-4.106 1.111.37 2.561 1.081 3.121 1.527 3.232 2.872 7.942 3.343 11.679 1.166 3.735-2.177 5.648-6.508 4.743-10.736-5.411-25.246 1.563-36.479 26.649-42.929 5.269-1.355 7.737-1.464 8.688-1.419.151.185.318.393.459.57 6.489 8.135 14.703 12.234 37.494 9.099 6.259-.856 10.137 2.198 17.017 8.134 6.244 5.387 14.014 12.091 25.31 12.687 13.738.731 31.034-8.761 35.234-23.683 1.735-.76 5.177-1.66 7.59-2.292 11.77-3.08 31.468-8.234 34.268-30.992.509-4.134 1.607-6.183 2.409-7.679.952-1.777 3.482-6.496.507-11.665-3.053-5.302-8.264-5.479-12.862-5.635-2.167-.073-5.289-.18-9.658-.524-3.281-2.162-7.165-5.874-7.605-7.73.213-.329.945-1.264 3.019-2.561 3.428-2.145 5.642-5.454 6.234-9.317 1.228-8.005-4.694-14.935-10.964-22.271-.474-.555-1.017-1.189-1.582-1.86 5.722-1.222 11.063-6.115 13.176-12.47 1.051-3.159 3.238-13.253-7.009-23.074 3.956-3.51 8.787-9.554 5.256-17.781-1.872-4.359-2.07-7.468-2.28-10.76-.272-4.262-.645-10.099-5.6-15.203-3.917-4.035-9.896-6.854-20.638-9.732-.721-.193-2.326-2.703-2.038-6.48.237-3.104 1.65-6.928 7.031-7.519 11.115-1.219 18.635-7.983 24.125-12.923 1.855-1.669 4.659-4.191 5.68-4.534 14.855-3.006 16.615-20.793 18.317-37.996 1.238-12.521 2.78-28.104 8.812-33.375 3.729-3.256 15.075-13.17 11.824-25.439z"/><path d="m297.42 257.803c16.662 0 38.995-28.8 43.303-34.573 9.971-13.363 26.697-39.721 26.697-66.107 0-18.485-7.662-36.72-21.022-50.029-13.243-13.193-30.548-20.449-48.679-20.449-.175 0-.346 0-.522 0-18.204 0-35.512 7.257-48.754 20.449-13.36 13.309-21.022 31.544-21.022 50.029 0 26.387 16.727 52.745 26.697 66.107 4.306 5.773 26.639 34.573 43.302 34.573zm-34.862-136.54c9.467-9.431 21.763-14.618 34.717-14.618h.184c12.914-.088 25.312 5.142 34.824 14.617 9.62 9.583 15.138 22.654 15.138 35.86 0 14.49-7.801 33.569-21.401 52.344-12.621 17.423-24.553 26.757-28.599 28.222-4.046-1.465-15.978-10.799-28.599-28.222-13.601-18.775-21.401-37.854-21.401-52.344-.001-13.205 5.516-26.276 15.137-35.859z"/><path d="m297.42 186.647c16.542 0 30-13.458 30-30s-13.458-30-30-30-30 13.458-30 30 13.458 30 30 30zm0-40.001c5.514 0 10 4.486 10 10s-4.486 10-10 10-10-4.486-10-10 4.487-10 10-10z"/><path d="m111.511 367.12c5.523 0 10-4.477 10-10s-4.477-10-10-10h-.007c-5.523 0-9.996 4.477-9.996 10s4.48 10 10.003 10z"/></g></g></svg>