<svg height="480pt" viewBox="0 0 480 480" width="480pt" xmlns="http://www.w3.org/2000/svg"><path d="m0 480h480l-48-32h-400v-400l-32-48zm0 0" fill="#f0d365"/><g fill="#4472b2"><path d="m400 448v-304l32 32v272"/><path d="m336 448v-240l32-32v272"/><path d="m272 448v-272l32 32v240"/><path d="m208 448v-208l32-32v240"/><path d="m144 448v-240l32 32v208"/><path d="m80 448v-160l32-32v192"/></g><path d="m472 88h-40v16h20.6875l-20.6875 20.6875-34.34375-34.34375c-3.128906-3.128906-8.183594-3.128906-11.3125 0l-74.34375 74.34375-42.34375-42.34375c-3.128906-3.128906-8.183594-3.128906-11.3125 0l-74.34375 74.34375-34.34375-34.34375c-3.128906-3.128906-8.183594-3.128906-11.3125 0l-96 96 11.3125 11.3125 90.34375-90.34375 34.34375 34.34375c3.128906 3.128906 8.183594 3.128906 11.3125 0l74.34375-74.34375 42.34375 42.34375c3.128906 3.128906 8.183594 3.128906 11.3125 0l74.34375-74.34375 34.34375 34.34375c3.128906 3.128906 8.183594 3.128906 11.3125 0l26.34375-26.34375v20.6875h16v-40c0-4.414062-3.574219-8-8-8zm0 0" fill="#f0d365"/></svg>